<?xml version="1.0" encoding="utf-8"?>
<!-- Generator: Adobe Illustrator 25.2.3, SVG Export Plug-In . SVG Version: 6.00 Build 0)  -->
<svg version="1.1" id="Layer_1" xmlns="http://www.w3.org/2000/svg" xmlns:xlink="http://www.w3.org/1999/xlink" x="0px" y="0px"
	 viewBox="0 0 550 369.65" style="enable-background:new 0 0 550 369.65;" xml:space="preserve">
<style type="text/css">
	.st0{fill:url(#SVGID_1_);}
	.st1{fill:#4039D2;}
	.st2{fill:#167AF6;}
	.st3{fill:#050F2E;}
	.st4{fill:#091741;}
	.st5{fill:#FFFFFF;}
</style>
<g>
	<polygon class="st2" points="0,74.88 126.87,1.25 126.87,148.02 	"/>
	<polygon class="st2" points="253.73,74.88 380.6,1.25 380.6,148.02 	"/>
	<polygon class="st2" points="126.87,148.5 253.73,74.87 253.73,221.64 	"/>
	<polygon class="st2" points="253.73,221.65 380.6,148.02 380.6,294.78 	"/>
	<polygon class="st1" points="380.6,74.88 507.46,1.25 507.46,148.02 	"/>
	<polygon class="st2" points="380.6,294.76 507.46,221.13 507.46,367.9 	"/>
	<polygon class="st1" points="253.73,74.87 126.87,148.5 126.87,1.73 	"/>
	<polygon class="st2" points="550,196.44 507.46,221.13 507.46,171.92 	"/>
	<polygon class="st2" points="87.31,195.84 44.78,220.52 44.78,171.31 	"/>
	<polygon class="st1" points="380.6,148 253.73,221.64 253.73,74.87 	"/>
	<polygon class="st1" points="253.73,221.55 126.87,295.18 126.87,148.42 	"/>
	<polygon class="st1" points="380.6,294.77 253.73,368.4 253.73,221.64 	"/>
	<polygon class="st1" points="507.46,221.15 380.6,294.78 380.6,148.02 	"/>
</g>
<g>
	<g>
		<g>
			<path class="st5" d="M176.15,140.42c0,3.95-0.89,7.1-2.67,9.45c-1.78,2.36-4.18,3.53-7.2,3.53c-2.33,0-4.25-0.85-5.75-2.56v11.86
				h-7.91v-35.18h7.4l0.23,2.35c1.52-1.88,3.51-2.82,5.99-2.82c3.13,0,5.57,1.15,7.3,3.46c1.74,2.31,2.61,5.48,2.61,9.52V140.42z
				 M168.24,139.93c0-4.51-1.32-6.76-3.95-6.76c-1.88,0-3.13,0.67-3.76,2.02v10c0.69,1.41,1.96,2.11,3.8,2.11
				c2.52,0,3.82-2.18,3.9-6.53V139.93z"/>
			<path class="st5" d="M220.71,145.8c0-0.67-0.35-1.21-1.06-1.62c-0.7-0.41-2.04-0.83-4.02-1.27c-1.97-0.44-3.6-1.01-4.88-1.73
				c-1.28-0.71-2.26-1.58-2.94-2.6c-0.67-1.02-1.01-2.18-1.01-3.5c0-2.33,0.96-4.25,2.89-5.77c1.93-1.51,4.45-2.27,7.56-2.27
				c3.35,0,6.04,0.76,8.08,2.28c2.04,1.52,3.05,3.51,3.05,5.99h-7.94c0-2.04-1.07-3.05-3.22-3.05c-0.83,0-1.53,0.23-2.09,0.69
				c-0.56,0.46-0.85,1.04-0.85,1.73c0,0.7,0.34,1.28,1.03,1.71c0.69,0.44,1.79,0.8,3.3,1.08c1.51,0.28,2.84,0.62,3.98,1.01
				c3.82,1.32,5.73,3.67,5.73,7.07c0,2.32-1.03,4.2-3.09,5.66c-2.06,1.46-4.72,2.18-8,2.18c-2.18,0-4.12-0.39-5.82-1.17
				c-1.71-0.78-3.04-1.85-3.99-3.19c-0.96-1.35-1.43-2.76-1.43-4.25h7.4c0.03,1.17,0.42,2.03,1.17,2.57
				c0.75,0.54,1.71,0.81,2.89,0.81c1.08,0,1.89-0.22,2.43-0.66C220.44,147.07,220.71,146.5,220.71,145.8z"/>
			<path class="st5" d="M245.35,145.8c0-0.67-0.35-1.21-1.06-1.62c-0.7-0.41-2.04-0.83-4.02-1.27c-1.97-0.44-3.6-1.01-4.88-1.73
				c-1.28-0.71-2.26-1.58-2.94-2.6c-0.67-1.02-1.01-2.18-1.01-3.5c0-2.33,0.96-4.25,2.89-5.77c1.93-1.51,4.45-2.27,7.56-2.27
				c3.35,0,6.04,0.76,8.08,2.28c2.04,1.52,3.05,3.51,3.05,5.99h-7.94c0-2.04-1.07-3.05-3.22-3.05c-0.83,0-1.53,0.23-2.09,0.69
				c-0.56,0.46-0.85,1.04-0.85,1.73c0,0.7,0.34,1.28,1.03,1.71c0.69,0.44,1.79,0.8,3.3,1.08c1.51,0.28,2.84,0.62,3.98,1.01
				c3.82,1.32,5.73,3.67,5.73,7.07c0,2.32-1.03,4.2-3.09,5.66c-2.06,1.46-4.72,2.18-8,2.18c-2.18,0-4.12-0.39-5.82-1.17
				c-1.71-0.78-3.04-1.85-3.99-3.19c-0.96-1.35-1.43-2.76-1.43-4.25h7.4c0.03,1.17,0.42,2.03,1.17,2.57
				c0.75,0.54,1.71,0.81,2.89,0.81c1.08,0,1.89-0.22,2.43-0.66C245.08,147.07,245.35,146.5,245.35,145.8z"/>
			<path class="st5" d="M278.62,142.51l2.56-14.98h7.59l-5.99,25.41h-6.69l-4.2-15.08l-4.23,15.08h-6.69l-5.99-25.41h7.59
				l2.51,15.34l4.04-15.34h5.52L278.62,142.51z"/>
			<path class="st5" d="M333.98,134.69l-2.61-0.19c-2.49,0-4.09,0.78-4.79,2.35v16.09h-7.91v-25.41h7.42l0.26,3.26
				c1.33-2.49,3.19-3.73,5.57-3.73c0.85,0,1.58,0.09,2.21,0.28L333.98,134.69z"/>
			<path class="st5" d="M335.39,140.04c0-4.02,0.87-7.19,2.61-9.51c1.74-2.32,4.16-3.48,7.28-3.48c2.27,0,4.18,0.89,5.73,2.68
				v-12.87h7.94v36.07h-7.12l-0.4-2.72c-1.63,2.13-3.7,3.19-6.2,3.19c-3.02,0-5.42-1.16-7.19-3.48
				C336.27,147.61,335.39,144.32,335.39,140.04z M343.3,140.54c0,4.51,1.32,6.76,3.95,6.76c1.75,0,3.01-0.74,3.76-2.21v-9.68
				c-0.72-1.5-1.96-2.25-3.71-2.25c-2.44,0-3.77,1.97-3.97,5.92L343.3,140.54z"/>
			<g>
				<path class="st5" d="M187.49,141.51l-9.43-2.6l1.88-5.46l9.23,3.79l-0.72-10.17h6.19l-0.75,10.38l8.97-3.7l1.88,5.52l-9.55,2.6
					l6.34,7.67l-5.01,3.41l-5.29-8.51l-5.32,8.22l-5.01-3.27L187.49,141.51z"/>
			</g>
			<g>
				<path class="st5" d="M298.95,141.51l-9.43-2.6l1.88-5.46l9.23,3.79l-0.72-10.17h6.19l-0.75,10.38l8.97-3.7l1.88,5.52l-9.55,2.6
					l6.34,7.67l-5.01,3.41l-5.29-8.51l-5.32,8.22l-5.01-3.27L298.95,141.51z"/>
			</g>
		</g>
		<g>
			<path class="st5" d="M193.67,166c0.18-1.32,0.53-2.46,1.07-3.43c0.53-0.97,1.18-1.69,1.94-2.16c0.76-0.47,1.6-0.69,2.51-0.66
				c1.4,0.03,2.46,0.56,3.17,1.59l0.4-1.35h1.85l-2.01,11.83c-0.22,1.54-0.84,2.78-1.88,3.7c-1.04,0.93-2.31,1.37-3.83,1.32
				c-0.82-0.01-1.6-0.21-2.35-0.58c-0.75-0.37-1.34-0.88-1.77-1.53l1.15-1.24c0.73,1.08,1.69,1.63,2.89,1.66
				c0.96,0.03,1.77-0.24,2.44-0.8c0.67-0.57,1.11-1.37,1.32-2.41l0.22-1.07c-0.98,0.98-2.13,1.46-3.45,1.43
				c-0.75-0.02-1.41-0.23-1.96-0.61c-0.55-0.38-0.98-0.94-1.29-1.66c-0.31-0.73-0.47-1.54-0.5-2.43
				C193.59,167.15,193.61,166.62,193.67,166z M195.63,167.15c-0.02,1.06,0.16,1.89,0.55,2.47c0.39,0.58,0.98,0.89,1.77,0.92
				c1.21,0.03,2.24-0.56,3.12-1.77l0.95-5.54c-0.45-1.1-1.25-1.67-2.42-1.72c-1.09-0.03-1.99,0.42-2.7,1.34
				c-0.7,0.92-1.12,2.17-1.25,3.74L195.63,167.15z"/>
			<path class="st5" d="M219.57,172.29c-1.5-0.03-2.68-0.58-3.53-1.66c-0.85-1.08-1.21-2.46-1.07-4.14l0.06-0.48
				c0.13-1.2,0.48-2.29,1.07-3.28c0.58-0.99,1.3-1.74,2.14-2.24c0.84-0.5,1.75-0.74,2.73-0.72c1.24,0.03,2.22,0.44,2.93,1.24
				c0.71,0.8,1.09,1.88,1.16,3.24c0.02,0.48,0.01,0.97-0.04,1.45l-0.12,0.93h-7.9c-0.13,1.09,0.05,2.03,0.54,2.79
				c0.5,0.77,1.23,1.17,2.22,1.19c1.19,0.03,2.29-0.51,3.31-1.61l1.16,0.98c-0.51,0.73-1.16,1.3-1.96,1.71
				C221.44,172.11,220.55,172.31,219.57,172.29z M220.85,161.45c-0.83-0.02-1.56,0.26-2.18,0.85c-0.62,0.59-1.12,1.46-1.48,2.62
				l5.87,0.01l0.04-0.18c0.12-0.94-0.03-1.72-0.45-2.34C222.23,161.79,221.63,161.47,220.85,161.45z"/>
			<path class="st5" d="M238.9,159.97l-0.29,1.53c1.09-1.19,2.32-1.77,3.71-1.74c1.14,0.03,1.98,0.42,2.52,1.18
				c0.54,0.76,0.74,1.83,0.6,3.21l-1.32,7.92h-2.02l1.33-7.94c0.04-0.36,0.05-0.7,0.01-1.01c-0.13-1.04-0.74-1.57-1.84-1.6
				c-1.21-0.02-2.28,0.62-3.19,1.94l-1.5,8.61h-2.02l2.1-12.08L238.9,159.97z"/>
			<path class="st5" d="M261.16,172.29c-1.5-0.03-2.68-0.58-3.53-1.66c-0.85-1.08-1.21-2.46-1.07-4.14l0.06-0.48
				c0.13-1.2,0.48-2.29,1.07-3.28c0.58-0.99,1.3-1.74,2.14-2.24c0.84-0.5,1.75-0.74,2.73-0.72c1.24,0.03,2.22,0.44,2.93,1.24
				c0.71,0.8,1.09,1.88,1.16,3.24c0.02,0.48,0.01,0.97-0.04,1.45l-0.12,0.93h-7.9c-0.13,1.09,0.05,2.03,0.54,2.79
				c0.5,0.77,1.23,1.17,2.22,1.19c1.19,0.03,2.29-0.51,3.31-1.61l1.16,0.98c-0.51,0.73-1.16,1.3-1.96,1.71
				C263.04,172.11,262.14,172.31,261.16,172.29z M262.45,161.45c-0.83-0.02-1.56,0.26-2.18,0.85c-0.62,0.59-1.12,1.46-1.48,2.62
				l5.87,0.01l0.04-0.18c0.12-0.94-0.03-1.72-0.45-2.34C263.83,161.79,263.23,161.47,262.45,161.45z"/>
			<path class="st5" d="M284,161.83l-0.95-0.1c-1.3,0-2.32,0.58-3.06,1.75l-1.49,8.59h-2.02l2.1-12.08l1.95-0.01l-0.3,1.41
				c0.86-1.12,1.87-1.67,3.03-1.64c0.25,0,0.57,0.06,0.96,0.17L284,161.83z"/>
			<path class="st5" d="M299.74,172.07c-0.05-0.22-0.08-0.43-0.08-0.64l0.03-0.64c-1.11,1.03-2.29,1.53-3.53,1.5
				c-1.06-0.01-1.93-0.35-2.6-1.01c-0.67-0.66-0.97-1.48-0.91-2.47c0.07-1.28,0.63-2.28,1.68-3c1.05-0.72,2.42-1.08,4.13-1.08
				l2.11,0.01l0.13-0.96c0.07-0.72-0.07-1.29-0.42-1.71c-0.35-0.42-0.88-0.64-1.59-0.65c-0.69-0.01-1.3,0.15-1.84,0.51
				c-0.53,0.35-0.86,0.82-0.98,1.4l-2.03,0.01c0.07-0.71,0.34-1.33,0.83-1.88c0.48-0.55,1.11-0.97,1.87-1.27
				c0.76-0.3,1.54-0.44,2.36-0.43c1.26,0.03,2.24,0.41,2.94,1.14c0.7,0.73,0.99,1.71,0.88,2.92l-0.98,5.99l-0.06,0.86
				c-0.01,0.41,0.03,0.82,0.13,1.22l-0.02,0.19H299.74z M296.57,170.51c0.65,0.01,1.26-0.14,1.84-0.46
				c0.58-0.32,1.07-0.77,1.49-1.35l0.44-2.49l-1.53-0.01c-1.27,0-2.25,0.2-2.93,0.6c-0.68,0.4-1.06,0.97-1.15,1.71
				c-0.07,0.57,0.07,1.04,0.4,1.41C295.46,170.29,295.94,170.49,296.57,170.51z"/>
			<path class="st5" d="M318.56,157.06l-0.51,2.93h2.2l-0.28,1.6h-2.19l-1.26,7.52c-0.02,0.19-0.03,0.37-0.01,0.54
				c0.05,0.58,0.37,0.87,0.95,0.87c0.25,0,0.57-0.04,0.98-0.11l-0.16,1.69c-0.48,0.13-0.98,0.2-1.47,0.2
				c-0.8-0.01-1.41-0.31-1.81-0.89c-0.4-0.58-0.56-1.35-0.47-2.33l1.23-7.48h-2.13l0.28-1.6h2.13l0.51-2.93H318.56z"/>
			<path class="st5" d="M335.76,159.76c1.01,0.01,1.88,0.29,2.6,0.83c0.72,0.54,1.26,1.28,1.6,2.22c0.35,0.94,0.46,1.97,0.35,3.09
				l-0.02,0.25c-0.14,1.18-0.49,2.24-1.05,3.19c-0.56,0.95-1.28,1.69-2.17,2.22c-0.89,0.53-1.86,0.78-2.91,0.75
				c-1.01-0.01-1.87-0.29-2.6-0.83c-0.73-0.54-1.26-1.27-1.59-2.19c-0.34-0.92-0.45-1.94-0.36-3.05c0.11-1.25,0.45-2.38,1.02-3.37
				c0.57-1,1.29-1.77,2.18-2.32C333.71,159.99,334.69,159.73,335.76,159.76z M331.66,166.24c-0.05,0.47-0.05,0.96,0,1.46
				c0.07,0.88,0.34,1.58,0.79,2.1c0.45,0.52,1.05,0.79,1.8,0.82c0.67,0.02,1.29-0.14,1.85-0.5c0.57-0.35,1.04-0.89,1.43-1.6
				c0.39-0.71,0.64-1.51,0.75-2.38c0.06-0.68,0.07-1.26,0.03-1.73c-0.09-0.9-0.36-1.61-0.81-2.13c-0.45-0.52-1.06-0.8-1.81-0.83
				c-1.04-0.02-1.93,0.39-2.66,1.23c-0.73,0.84-1.18,1.94-1.35,3.31L331.66,166.24z"/>
			<path class="st5" d="M358.03,161.83l-0.95-0.1c-1.3,0-2.32,0.58-3.06,1.75l-1.49,8.59h-2.02l2.1-12.08l1.95-0.01l-0.3,1.41
				c0.86-1.12,1.87-1.67,3.03-1.64c0.25,0,0.57,0.06,0.96,0.17L358.03,161.83z"/>
		</g>
	</g>
	<g>
		<path class="st5" d="M156.35,184.1l0.11,0.69h0.05l0.13-0.69l1.11-5.74h2.48l-2.59,9.1h-2.31l-2.6-9.1h2.5L156.35,184.1z"/>
		<path class="st5" d="M166.58,187.46h-2.38v-10.18l-2.24,0.06v-1.82l4.62-0.47V187.46z"/>
		<path class="st5" d="M172.79,187.46h-2.34v-2.13h2.34V187.46z"/>
		<path class="st5" d="M182.27,183.02c0,1.44-0.34,2.57-1.03,3.39c-0.69,0.82-1.6,1.23-2.73,1.23c-1.14,0-2.06-0.41-2.75-1.23
			s-1.04-1.95-1.04-3.39v-3.36c0-1.43,0.34-2.56,1.03-3.39c0.69-0.83,1.6-1.24,2.74-1.24c1.13,0,2.04,0.41,2.74,1.24
			c0.69,0.83,1.04,1.96,1.04,3.39V183.02z M179.89,179.46c0-0.81-0.12-1.43-0.37-1.88c-0.25-0.45-0.59-0.67-1.02-0.67
			c-0.44,0-0.79,0.22-1.03,0.67c-0.24,0.45-0.37,1.08-0.37,1.88v3.76c0,0.82,0.12,1.46,0.37,1.9c0.25,0.45,0.59,0.67,1.04,0.67
			c0.43,0,0.77-0.22,1.01-0.67c0.24-0.45,0.37-1.08,0.37-1.9V179.46z"/>
	</g>
</g>
<g>
	<path class="st5" d="M285.21,220.69c0-0.9,0.29-1.65,0.88-2.26c0.59-0.61,1.3-0.92,2.15-0.92c0.84,0,1.55,0.31,2.14,0.92
		c0.59,0.61,0.88,1.37,0.88,2.26c0,0.9-0.29,1.66-0.88,2.27c-0.59,0.62-1.3,0.93-2.14,0.93c-0.84,0-1.56-0.31-2.15-0.93
		C285.5,222.35,285.21,221.59,285.21,220.69z M285.73,220.69c0,0.75,0.24,1.39,0.73,1.91c0.49,0.52,1.08,0.78,1.78,0.78
		c0.7,0,1.29-0.26,1.78-0.78c0.49-0.52,0.73-1.15,0.73-1.91c0-0.75-0.24-1.38-0.73-1.89c-0.49-0.51-1.08-0.77-1.78-0.77
		c-0.7,0-1.29,0.26-1.78,0.77C285.97,219.31,285.73,219.94,285.73,220.69z M289.57,221.26l0.01,0.03c0.01,0.43-0.11,0.76-0.36,0.98
		c-0.25,0.22-0.6,0.33-1.04,0.33c-0.45,0-0.82-0.15-1.08-0.45s-0.4-0.7-0.4-1.2v-0.51c0-0.49,0.13-0.89,0.4-1.19
		s0.63-0.46,1.08-0.46c0.45,0,0.8,0.11,1.05,0.34c0.25,0.22,0.37,0.55,0.36,0.97l-0.01,0.03h-0.62c0-0.27-0.06-0.47-0.19-0.59
		s-0.32-0.19-0.58-0.19c-0.27,0-0.47,0.1-0.62,0.3c-0.15,0.2-0.22,0.46-0.22,0.79v0.51c0,0.33,0.07,0.6,0.22,0.8
		c0.15,0.2,0.35,0.3,0.62,0.3c0.26,0,0.45-0.06,0.58-0.18c0.13-0.12,0.19-0.32,0.19-0.6H289.57z"/>
	<path class="st5" d="M300.09,223.8h-3.85v-0.58l1.95-2.32c0.35-0.42,0.58-0.76,0.71-1c0.12-0.25,0.19-0.5,0.19-0.75
		c0-0.29-0.08-0.52-0.25-0.71c-0.17-0.18-0.4-0.27-0.7-0.27c-0.37,0-0.65,0.11-0.84,0.34S297,219,297,219.34h-0.81l-0.01-0.03
		c-0.01-0.51,0.16-0.93,0.51-1.29c0.35-0.35,0.83-0.53,1.44-0.53c0.55,0,0.99,0.15,1.31,0.46c0.32,0.31,0.48,0.7,0.48,1.19
		c0,0.33-0.09,0.65-0.27,0.96c-0.18,0.31-0.46,0.71-0.83,1.18l-1.57,1.83l0.01,0.02h2.83V223.8z"/>
	<path class="st5" d="M305.82,221.61c0,0.7-0.18,1.26-0.54,1.67c-0.36,0.41-0.84,0.61-1.44,0.61c-0.6,0-1.08-0.2-1.44-0.61
		c-0.36-0.41-0.54-0.97-0.54-1.67v-1.83c0-0.7,0.18-1.25,0.54-1.66c0.36-0.41,0.83-0.62,1.44-0.62c0.6,0,1.08,0.21,1.44,0.62
		c0.36,0.41,0.54,0.97,0.54,1.66V221.61z M304.98,219.61c0-0.45-0.1-0.8-0.3-1.06c-0.2-0.26-0.48-0.39-0.84-0.39
		c-0.36,0-0.64,0.13-0.84,0.39s-0.29,0.61-0.29,1.06v2.17c0,0.45,0.1,0.8,0.3,1.06c0.2,0.26,0.48,0.39,0.84,0.39
		c0.36,0,0.64-0.13,0.84-0.39s0.29-0.61,0.29-1.06V219.61z"/>
	<path class="st5" d="M311.67,223.8h-3.85v-0.58l1.95-2.32c0.35-0.42,0.58-0.76,0.71-1c0.12-0.25,0.19-0.5,0.19-0.75
		c0-0.29-0.08-0.52-0.25-0.71c-0.17-0.18-0.4-0.27-0.7-0.27c-0.37,0-0.65,0.11-0.84,0.34s-0.29,0.5-0.29,0.84h-0.81l-0.01-0.03
		c-0.01-0.51,0.16-0.93,0.51-1.29c0.35-0.35,0.83-0.53,1.44-0.53c0.55,0,0.99,0.15,1.31,0.46c0.32,0.31,0.48,0.7,0.48,1.19
		c0,0.33-0.09,0.65-0.27,0.96c-0.18,0.31-0.46,0.71-0.83,1.18l-1.57,1.83l0.01,0.02h2.83V223.8z"/>
	<path class="st5" d="M315.99,223.8h-0.84v-5.43l-1.35,0.01v-0.65l2.2-0.23V223.8z"/>
	<path class="st5" d="M322.52,223.8v-6.21h2.03c0.65,0,1.16,0.14,1.52,0.42c0.37,0.28,0.55,0.7,0.55,1.26
		c0,0.27-0.08,0.51-0.25,0.72c-0.16,0.21-0.38,0.37-0.66,0.48c0.41,0.06,0.73,0.23,0.97,0.53c0.24,0.3,0.36,0.64,0.36,1.04
		c0,0.57-0.19,1-0.55,1.3c-0.37,0.3-0.87,0.45-1.5,0.45H322.52z M323.36,220.23h1.36c0.31,0,0.57-0.09,0.76-0.26
		c0.2-0.17,0.29-0.41,0.29-0.72c0-0.34-0.11-0.59-0.32-0.75c-0.21-0.17-0.52-0.25-0.92-0.25h-1.19V220.23z M323.36,220.89v2.26h1.62
		c0.38,0,0.68-0.09,0.89-0.28s0.32-0.46,0.32-0.8c0-0.34-0.11-0.62-0.32-0.83c-0.22-0.21-0.51-0.32-0.87-0.34h-0.06H323.36z"/>
	<path class="st5" d="M329.75,223.8h-0.84v-0.86h0.84V223.8z"/>
	<path class="st5" d="M336.62,222.96c-0.15,0.23-0.4,0.44-0.77,0.64c-0.37,0.19-0.84,0.29-1.42,0.29c-0.72,0-1.31-0.24-1.78-0.71
		s-0.7-1.09-0.7-1.84v-1.28c0-0.75,0.23-1.37,0.68-1.84c0.45-0.48,1.04-0.71,1.75-0.71c0.69,0,1.24,0.18,1.64,0.55
		s0.6,0.84,0.58,1.41l-0.01,0.03h-0.81c0-0.38-0.12-0.69-0.37-0.94c-0.24-0.25-0.59-0.38-1.04-0.38c-0.47,0-0.86,0.18-1.15,0.53
		s-0.44,0.81-0.44,1.35v1.29c0,0.55,0.15,1.01,0.46,1.36c0.31,0.36,0.7,0.54,1.18,0.54c0.37,0,0.66-0.05,0.87-0.14
		s0.37-0.21,0.48-0.34v-1.4h-1.41v-0.66h2.25V222.96z"/>
	<path class="st5" d="M341.76,223.12c-0.15,0.25-0.33,0.44-0.56,0.57s-0.49,0.2-0.79,0.2c-0.5,0-0.9-0.16-1.18-0.48
		c-0.28-0.32-0.42-0.82-0.42-1.5v-2.72h0.84v2.73c0,0.49,0.07,0.83,0.22,1.01c0.15,0.19,0.37,0.28,0.68,0.28
		c0.3,0,0.54-0.06,0.74-0.18c0.19-0.12,0.34-0.29,0.44-0.51v-3.33h0.84v4.61h-0.75L341.76,223.12z"/>
	<path class="st5" d="M346.5,223.23c0.26,0,0.48-0.09,0.68-0.26s0.29-0.38,0.29-0.63h0.76l0.01,0.03c0.01,0.4-0.16,0.75-0.51,1.06
		s-0.76,0.46-1.23,0.46c-0.65,0-1.15-0.22-1.5-0.66c-0.35-0.44-0.53-0.99-0.53-1.65v-0.18c0-0.65,0.18-1.2,0.53-1.64
		c0.35-0.44,0.85-0.66,1.5-0.66c0.51,0,0.94,0.16,1.26,0.48c0.33,0.32,0.49,0.71,0.48,1.17l-0.01,0.03h-0.76
		c0-0.28-0.09-0.52-0.27-0.72c-0.18-0.2-0.41-0.3-0.69-0.3c-0.41,0-0.71,0.16-0.9,0.48s-0.28,0.71-0.28,1.16v0.18
		c0,0.46,0.09,0.85,0.28,1.17C345.78,223.07,346.09,223.23,346.5,223.23z"/>
	<path class="st5" d="M351.02,223.8h-0.84v-6.65h0.84V223.8z"/>
	<path class="st5" d="M356.12,223.12c-0.15,0.25-0.33,0.44-0.56,0.57s-0.49,0.2-0.79,0.2c-0.5,0-0.9-0.16-1.18-0.48
		c-0.28-0.32-0.42-0.82-0.42-1.5v-2.72h0.84v2.73c0,0.49,0.07,0.83,0.22,1.01c0.15,0.19,0.37,0.28,0.68,0.28
		c0.3,0,0.54-0.06,0.74-0.18c0.19-0.12,0.34-0.29,0.44-0.51v-3.33h0.84v4.61h-0.75L356.12,223.12z"/>
	<path class="st5" d="M360.3,221.67h-0.43v2.13h-0.84v-6.65h0.84V221h0.42l1.39-1.82h1.01l-1.68,2.13l1.82,2.49h-0.99L360.3,221.67z
		"/>
	<path class="st5" d="M364.18,221.45c0-0.68,0.19-1.24,0.55-1.69c0.37-0.44,0.87-0.66,1.51-0.66c0.64,0,1.15,0.22,1.52,0.66
		c0.37,0.44,0.56,1,0.56,1.69v0.09c0,0.69-0.18,1.25-0.55,1.69c-0.37,0.44-0.87,0.66-1.51,0.66s-1.14-0.22-1.51-0.66
		s-0.56-1-0.56-1.69V221.45z M365.02,221.54c0,0.49,0.1,0.89,0.31,1.21s0.51,0.48,0.92,0.48c0.4,0,0.71-0.16,0.91-0.48
		s0.31-0.72,0.31-1.21v-0.09c0-0.48-0.1-0.89-0.31-1.21s-0.52-0.48-0.92-0.48c-0.4,0-0.7,0.16-0.91,0.48s-0.31,0.72-0.31,1.21
		V221.54z"/>
	<path class="st5" d="M371.12,223.8h-0.84v-6.65h0.84V223.8z"/>
	<path class="st5" d="M374.21,223.8h-0.84v-0.86h0.84V223.8z"/>
	<path class="st5" d="M382.87,222.2h-2.34l-0.55,1.6h-0.86l2.24-6.21h0.72l2.19,6.21h-0.86L382.87,222.2z M380.77,221.5h1.85
		l-0.9-2.67h-0.03L380.77,221.5z"/>
	<path class="st5" d="M386.85,223.8h-0.84v-6.65h0.84V223.8z"/>
	<path class="st5" d="M389.92,223.8h-0.84v-6.65h0.84V223.8z"/>
	<path class="st5" d="M397.31,219.93l-0.43-0.03c-0.22,0-0.41,0.05-0.56,0.16c-0.15,0.11-0.27,0.25-0.35,0.44v3.3h-0.84v-4.61h0.75
		l0.08,0.67c0.13-0.24,0.29-0.42,0.48-0.56s0.41-0.2,0.66-0.2c0.06,0,0.12,0.01,0.18,0.02c0.06,0.01,0.1,0.02,0.14,0.03
		L397.31,219.93z"/>
	<path class="st5" d="M399.97,218h-0.84v-0.86h0.84V218z M399.97,223.8h-0.84v-4.61h0.84V223.8z"/>
	<path class="st5" d="M401.99,221.58c0-0.74,0.16-1.34,0.48-1.8c0.32-0.46,0.76-0.68,1.33-0.68c0.29,0,0.55,0.06,0.77,0.18
		c0.22,0.12,0.41,0.29,0.56,0.51l0.1-0.6h0.67v4.64c0,0.59-0.17,1.05-0.52,1.36c-0.34,0.32-0.84,0.48-1.49,0.48
		c-0.22,0-0.46-0.03-0.72-0.09s-0.48-0.14-0.68-0.25l0.13-0.65c0.16,0.08,0.36,0.15,0.59,0.21c0.23,0.05,0.45,0.08,0.68,0.08
		c0.41,0,0.71-0.09,0.89-0.28c0.19-0.19,0.28-0.47,0.28-0.85v-0.52c-0.15,0.19-0.33,0.34-0.54,0.44c-0.21,0.1-0.45,0.15-0.73,0.15
		c-0.56,0-1-0.2-1.32-0.61c-0.32-0.41-0.48-0.94-0.48-1.61V221.58z M402.83,221.67c0,0.46,0.1,0.84,0.29,1.12
		c0.19,0.28,0.48,0.42,0.88,0.42c0.25,0,0.46-0.06,0.64-0.17c0.17-0.12,0.31-0.28,0.42-0.49v-2.12c-0.11-0.2-0.25-0.35-0.42-0.47
		c-0.17-0.11-0.38-0.17-0.63-0.17c-0.4,0-0.7,0.17-0.89,0.5c-0.19,0.33-0.29,0.76-0.29,1.3V221.67z"/>
	<path class="st5" d="M408.81,219.8c0.16-0.22,0.35-0.39,0.59-0.52c0.23-0.12,0.49-0.19,0.77-0.19c0.49,0,0.88,0.15,1.15,0.44
		c0.27,0.3,0.41,0.75,0.41,1.36v2.89h-0.84v-2.9c0-0.38-0.08-0.66-0.25-0.84c-0.16-0.18-0.41-0.27-0.73-0.27
		c-0.25,0-0.47,0.05-0.65,0.15c-0.19,0.1-0.33,0.24-0.45,0.41v3.46h-0.84v-6.65h0.84V219.8z"/>
	<path class="st5" d="M414.98,218.07v1.11h0.87v0.62h-0.87v2.8c0,0.22,0.04,0.37,0.13,0.46c0.09,0.09,0.21,0.13,0.36,0.13
		c0.05,0,0.1-0.01,0.16-0.02c0.06-0.01,0.11-0.03,0.15-0.04l0.12,0.58c-0.06,0.05-0.16,0.09-0.28,0.13s-0.24,0.05-0.36,0.05
		c-0.34,0-0.61-0.1-0.81-0.31c-0.2-0.21-0.3-0.53-0.3-0.97v-2.8h-0.73v-0.62h0.73v-1.11H414.98z"/>
	<path class="st5" d="M420.31,222.56c0-0.18-0.07-0.34-0.21-0.45c-0.14-0.12-0.41-0.22-0.8-0.31c-0.54-0.12-0.96-0.28-1.25-0.49
		c-0.29-0.21-0.44-0.49-0.44-0.84c0-0.38,0.16-0.7,0.48-0.96c0.32-0.27,0.73-0.4,1.24-0.4c0.52,0,0.95,0.14,1.27,0.43
		s0.48,0.62,0.46,0.99l-0.01,0.03h-0.8c0-0.2-0.09-0.38-0.26-0.54c-0.18-0.16-0.4-0.24-0.66-0.24c-0.3,0-0.52,0.07-0.66,0.2
		c-0.15,0.13-0.22,0.29-0.22,0.48c0,0.18,0.06,0.32,0.19,0.42c0.13,0.1,0.39,0.19,0.78,0.27c0.57,0.12,1,0.29,1.29,0.51
		c0.29,0.22,0.44,0.5,0.44,0.86c0,0.41-0.17,0.74-0.5,1c-0.33,0.26-0.76,0.39-1.3,0.39c-0.59,0-1.05-0.15-1.39-0.45
		c-0.34-0.3-0.5-0.65-0.48-1.04l0.01-0.03h0.8c0.01,0.3,0.13,0.52,0.33,0.65c0.21,0.14,0.45,0.21,0.73,0.21
		c0.3,0,0.53-0.06,0.7-0.19C420.22,222.92,420.31,222.75,420.31,222.56z"/>
	<path class="st5" d="M428.29,219.93l-0.43-0.03c-0.22,0-0.41,0.05-0.56,0.16c-0.15,0.11-0.27,0.25-0.35,0.44v3.3h-0.84v-4.61h0.75
		l0.08,0.67c0.13-0.24,0.29-0.42,0.48-0.56s0.41-0.2,0.66-0.2c0.06,0,0.12,0.01,0.18,0.02c0.06,0.01,0.1,0.02,0.14,0.03
		L428.29,219.93z"/>
	<path class="st5" d="M431.87,223.89c-0.66,0-1.18-0.21-1.55-0.64c-0.37-0.42-0.56-0.98-0.56-1.67v-0.19c0-0.66,0.19-1.21,0.57-1.64
		s0.85-0.65,1.4-0.65c0.62,0,1.08,0.19,1.39,0.58s0.46,0.89,0.46,1.53v0.44h-2.95l-0.01,0.02c0,0.46,0.1,0.84,0.31,1.13
		s0.52,0.43,0.94,0.43c0.28,0,0.53-0.04,0.75-0.12c0.21-0.08,0.4-0.19,0.55-0.33l0.33,0.55c-0.17,0.16-0.38,0.29-0.65,0.4
		S432.25,223.89,431.87,223.89z M431.74,219.76c-0.29,0-0.54,0.11-0.73,0.34c-0.19,0.23-0.31,0.52-0.35,0.87l0.01,0.02h2.08v-0.07
		c0-0.34-0.08-0.61-0.25-0.83C432.34,219.87,432.08,219.76,431.74,219.76z"/>
	<path class="st5" d="M438.09,222.56c0-0.18-0.07-0.34-0.21-0.45c-0.14-0.12-0.41-0.22-0.8-0.31c-0.54-0.12-0.96-0.28-1.25-0.49
		c-0.29-0.21-0.44-0.49-0.44-0.84c0-0.38,0.16-0.7,0.48-0.96c0.32-0.27,0.73-0.4,1.24-0.4c0.52,0,0.95,0.14,1.27,0.43
		s0.48,0.62,0.46,0.99l-0.01,0.03h-0.8c0-0.2-0.09-0.38-0.26-0.54c-0.18-0.16-0.4-0.24-0.66-0.24c-0.3,0-0.52,0.07-0.66,0.2
		c-0.15,0.13-0.22,0.29-0.22,0.48c0,0.18,0.06,0.32,0.19,0.42c0.13,0.1,0.39,0.19,0.78,0.27c0.57,0.12,1,0.29,1.29,0.51
		c0.29,0.22,0.44,0.5,0.44,0.86c0,0.41-0.17,0.74-0.5,1c-0.33,0.26-0.76,0.39-1.3,0.39c-0.59,0-1.05-0.15-1.39-0.45
		c-0.34-0.3-0.5-0.65-0.48-1.04l0.01-0.03h0.8c0.01,0.3,0.13,0.52,0.33,0.65c0.21,0.14,0.45,0.21,0.73,0.21
		c0.3,0,0.53-0.06,0.7-0.19C438,222.92,438.09,222.75,438.09,222.56z"/>
	<path class="st5" d="M442.76,223.89c-0.66,0-1.18-0.21-1.55-0.64c-0.37-0.42-0.56-0.98-0.56-1.67v-0.19c0-0.66,0.19-1.21,0.57-1.64
		s0.85-0.65,1.4-0.65c0.62,0,1.08,0.19,1.39,0.58s0.46,0.89,0.46,1.53v0.44h-2.95l-0.01,0.02c0,0.46,0.1,0.84,0.31,1.13
		s0.52,0.43,0.94,0.43c0.28,0,0.53-0.04,0.75-0.12c0.21-0.08,0.4-0.19,0.55-0.33l0.33,0.55c-0.17,0.16-0.38,0.29-0.65,0.4
		S443.14,223.89,442.76,223.89z M442.63,219.76c-0.29,0-0.54,0.11-0.73,0.34c-0.19,0.23-0.31,0.52-0.35,0.87l0.01,0.02h2.08v-0.07
		c0-0.34-0.08-0.61-0.25-0.83C443.22,219.87,442.97,219.76,442.63,219.76z"/>
	<path class="st5" d="M448.48,219.93l-0.43-0.03c-0.22,0-0.41,0.05-0.56,0.16c-0.15,0.11-0.27,0.25-0.35,0.44v3.3h-0.84v-4.61h0.75
		l0.08,0.67c0.13-0.24,0.29-0.42,0.48-0.56s0.41-0.2,0.66-0.2c0.06,0,0.12,0.01,0.18,0.02c0.06,0.01,0.1,0.02,0.14,0.03
		L448.48,219.93z"/>
	<path class="st5" d="M451.84,222.44l0.07,0.32h0.03l0.08-0.32l1.06-3.25h0.86l-1.7,4.61h-0.64l-1.72-4.61h0.86L451.84,222.44z"/>
	<path class="st5" d="M457.42,223.89c-0.66,0-1.18-0.21-1.55-0.64c-0.37-0.42-0.56-0.98-0.56-1.67v-0.19c0-0.66,0.19-1.21,0.57-1.64
		s0.85-0.65,1.4-0.65c0.62,0,1.08,0.19,1.39,0.58s0.46,0.89,0.46,1.53v0.44h-2.95l-0.01,0.02c0,0.46,0.1,0.84,0.31,1.13
		s0.52,0.43,0.94,0.43c0.28,0,0.53-0.04,0.75-0.12c0.21-0.08,0.4-0.19,0.55-0.33l0.33,0.55c-0.17,0.16-0.38,0.29-0.65,0.4
		S457.8,223.89,457.42,223.89z M457.29,219.76c-0.29,0-0.54,0.11-0.73,0.34c-0.19,0.23-0.31,0.52-0.35,0.87l0.01,0.02h2.08v-0.07
		c0-0.34-0.08-0.61-0.25-0.83C457.89,219.87,457.63,219.76,457.29,219.76z"/>
	<path class="st5" d="M460.76,221.58c0-0.74,0.16-1.34,0.48-1.8c0.32-0.46,0.76-0.68,1.33-0.68c0.27,0,0.51,0.05,0.72,0.15
		s0.39,0.24,0.54,0.44v-2.54h0.84v6.65h-0.64l-0.13-0.58c-0.15,0.22-0.34,0.39-0.56,0.5c-0.22,0.11-0.48,0.17-0.77,0.17
		c-0.56,0-1-0.2-1.32-0.61c-0.32-0.41-0.48-0.94-0.48-1.61V221.58z M461.6,221.67c0,0.47,0.1,0.84,0.29,1.12
		c0.19,0.28,0.49,0.42,0.89,0.42c0.25,0,0.46-0.06,0.63-0.17s0.31-0.27,0.42-0.48v-2.15c-0.11-0.19-0.25-0.34-0.42-0.45
		c-0.17-0.11-0.38-0.17-0.62-0.17c-0.4,0-0.7,0.17-0.89,0.5c-0.19,0.33-0.29,0.76-0.29,1.3V221.67z"/>
	<path class="st5" d="M467.71,223.8h-0.84v-0.86h0.84V223.8z"/>
</g>
<g>
	<path class="st5" d="M467.71,41.25c-7.44,0-13.46,6.03-13.46,13.46c0,1.63,1.32,2.94,2.96,2.94s2.96-1.32,2.96-2.94
		c0-4.17,3.38-7.55,7.55-7.55c4.17,0,7.55,3.38,7.55,7.55V70.5c-2.15-1.46-4.75-2.32-7.55-2.32c-7.44,0-13.46,6.03-13.46,13.46
		c0,7.44,6.03,13.46,13.46,13.46c7.11,0,12.92-5.51,13.42-12.48h0.04V54.72C481.17,47.28,475.15,41.25,467.71,41.25z M469.78,82.32
		v4.57c0,1.15-0.93,2.07-2.07,2.07s-2.07-0.93-2.07-2.07v-4.57c-1.39-0.74-2.34-2.21-2.34-3.89c0-2.43,1.97-4.41,4.41-4.41
		c2.43,0,4.41,1.97,4.41,4.41C472.12,80.11,471.17,81.58,469.78,82.32z"/>
	<path class="st2" d="M489.82,74.49C489.82,74.49,489.82,74.49,489.82,74.49c-0.27-1.3-1.42-2.27-2.8-2.27
		c-1.58,0-2.86,1.28-2.86,2.85c0,0.37,0.07,0.71,0.2,1.03l0,0c0.58,1.74,0.9,3.61,0.9,5.54c0,9.69-7.85,17.54-17.54,17.54
		s-17.54-7.85-17.54-17.54c0-9.69,7.85-17.54,17.54-17.54c0.61,0,1.2,0.03,1.8,0.09v0c0,0,0,0,0,0c0,0,0,0,0,0v0
		c1.57,0,2.84-1.28,2.84-2.85c0-1.57-1.27-2.84-2.84-2.85v-0.02c-0.6-0.05-1.2-0.08-1.8-0.08c-12.83,0-23.24,10.4-23.24,23.24
		c0,12.83,10.4,23.24,23.24,23.24c12.83,0,23.24-10.4,23.24-23.24C490.94,79.15,490.55,76.74,489.82,74.49z"/>
</g>
</svg>
