<?xml version="1.0" encoding="utf-8"?>
<!-- Generator: Adobe Illustrator 25.2.3, SVG Export Plug-In . SVG Version: 6.00 Build 0)  -->
<svg version="1.1" id="Layer_1" xmlns="http://www.w3.org/2000/svg" xmlns:xlink="http://www.w3.org/1999/xlink" x="0px" y="0px"
	 viewBox="0 0 17.5 24" style="enable-background:new 0 0 17.5 24;" xml:space="preserve">
<style type="text/css">
	.st0{fill:url(#SVGID_1_);}
	.st1{fill:#4039D2;}
	.st2{fill:#167AF6;}
	.st3{fill:#050F2E;}
	.st4{fill:#091741;}
	.st5{fill:#FFFFFF;}
</style>
<g>
	<path class="st5" d="M8.75,0c-2.8,0-5.07,2.27-5.07,5.08c0,0.61,0.5,1.11,1.11,1.11s1.11-0.5,1.11-1.11c0-1.57,1.27-2.85,2.84-2.85
		c1.57,0,2.84,1.28,2.84,2.85v5.95c-0.81-0.55-1.79-0.87-2.84-0.87c-2.8,0-5.07,2.27-5.07,5.08c0,2.8,2.27,5.08,5.07,5.08
		c2.68,0,4.87-2.08,5.06-4.71h0.01V5.08C13.82,2.27,11.55,0,8.75,0z M9.53,15.49v1.72c0,0.43-0.35,0.78-0.78,0.78
		s-0.78-0.35-0.78-0.78v-1.72c-0.52-0.28-0.88-0.83-0.88-1.47c0-0.92,0.74-1.66,1.66-1.66c0.92,0,1.66,0.74,1.66,1.66
		C10.41,14.66,10.05,15.21,9.53,15.49z"/>
	<path class="st2" d="M17.08,12.54C17.08,12.54,17.08,12.54,17.08,12.54c-0.1-0.49-0.54-0.86-1.06-0.86c-0.6,0-1.08,0.48-1.08,1.07
		c0,0.14,0.03,0.27,0.07,0.39l0,0c0.22,0.66,0.34,1.36,0.34,2.09c0,3.65-2.96,6.62-6.61,6.62c-3.65,0-6.61-2.96-6.61-6.62
		c0-3.65,2.96-6.62,6.61-6.62c0.23,0,0.45,0.01,0.68,0.03v0c0,0,0,0,0,0c0,0,0,0,0,0v0c0.59,0,1.07-0.48,1.07-1.07
		s-0.48-1.07-1.07-1.07V6.5C9.2,6.48,8.98,6.47,8.75,6.47C3.92,6.47,0,10.4,0,15.24C0,20.08,3.92,24,8.75,24
		c4.83,0,8.75-3.92,8.75-8.76C17.5,14.29,17.35,13.39,17.08,12.54z"/>
</g>
</svg>
